HIERARCHY
ROOT mixamorig:Hips
{
	OFFSET 0.000000 201.639420 0.000000
	CHANNELS 6 Xposition Yposition Zposition Xrotation Yrotation Zrotation
	JOINT mixamorig:Spine
	{
		OFFSET 0.006200 19.524994 -2.481800
		CHANNELS 3 Xrotation Yrotation Zrotation
		JOINT mixamorig:Spine1
		{
			OFFSET -0.000900 22.835007 -2.825400
			CHANNELS 3 Xrotation Yrotation Zrotation
			JOINT mixamorig:Spine2
			{
				OFFSET -0.020600 26.552490 -3.193300
				CHANNELS 3 Xrotation Yrotation Zrotation
				JOINT mixamorig:Neck
				{
					OFFSET -0.060000 30.701813 1.352200
					CHANNELS 3 Xrotation Yrotation Zrotation
					JOINT mixamorig:Head
					{
						OFFSET -0.087200 22.547607 3.670900
						CHANNELS 3 Xrotation Yrotation Zrotation
						JOINT mixamorig:HeadTop_End
						{
							OFFSET -0.830600 40.355194 7.893500
							CHANNELS 3 Xrotation Yrotation Zrotation
							End Site
							{
								OFFSET 0.000000 30.592346 0.000000
							}
						}
						JOINT mixamorig:RightEye
						{
							OFFSET -6.302100 18.118591 16.197100
							CHANNELS 3 Xrotation Yrotation Zrotation
							End Site
							{
								OFFSET 0.000000 30.592346 0.000000
							}
						}
						JOINT mixamorig:LeftEye
						{
							OFFSET 6.741500 18.382690 16.401899
							CHANNELS 3 Xrotation Yrotation Zrotation
							End Site
							{
								OFFSET 0.000000 30.592346 0.000000
							}
						}
					}
				}
				JOINT mixamorig:LeftShoulder
				{
					OFFSET 11.924900 18.230499 1.425400
					CHANNELS 3 Xrotation Yrotation Zrotation
					JOINT mixamorig:LeftArm
					{
						OFFSET 25.435989 -0.697632 -5.229300
						CHANNELS 3 Xrotation Yrotation Zrotation
						JOINT mixamorig:LeftForeArm
						{
							OFFSET 54.684776 0.000000 0.000000
							CHANNELS 3 Xrotation Yrotation Zrotation
							JOINT mixamorig:LeftHand
							{
								OFFSET 55.098175 0.000000 0.000000
								CHANNELS 3 Xrotation Yrotation Zrotation
								JOINT mixamorig:LeftHandMiddle1
								{
									OFFSET 23.369751 0.000000 0.000000
									CHANNELS 3 Xrotation Yrotation Zrotation
									JOINT mixamorig:LeftHandMiddle2
									{
										OFFSET 6.378677 0.000000 0.000000
										CHANNELS 3 Xrotation Yrotation Zrotation
										JOINT mixamorig:LeftHandMiddle3
										{
											OFFSET 6.148331 0.000000 0.000000
											CHANNELS 3 Xrotation Yrotation Zrotation
											JOINT mixamorig:LeftHandMiddle4
											{
												OFFSET 6.582504 0.000000 0.000000
												CHANNELS 3 Xrotation Yrotation Zrotation
												End Site
												{
													OFFSET -1.168900 6.395691 1.028606
												}
											}
										}
									}
								}
								JOINT mixamorig:LeftHandThumb1
								{
									OFFSET 7.235672 -3.848206 5.434273
									CHANNELS 3 Xrotation Yrotation Zrotation
									JOINT mixamorig:LeftHandThumb2
									{
										OFFSET 6.568451 -3.792297 3.792300
										CHANNELS 3 Xrotation Yrotation Zrotation
										JOINT mixamorig:LeftHandThumb3
										{
											OFFSET 6.063080 -3.500519 3.500518
											CHANNELS 3 Xrotation Yrotation Zrotation
											JOINT mixamorig:LeftHandThumb4
											{
												OFFSET 4.793182 -2.767334 2.767349
												CHANNELS 3 Xrotation Yrotation Zrotation
												End Site
												{
													OFFSET 0.101639 6.054260 1.275483
												}
											}
										}
									}
								}
								JOINT mixamorig:LeftHandIndex1
								{
									OFFSET 23.101074 -0.309540 4.992809
									CHANNELS 3 Xrotation Yrotation Zrotation
									JOINT mixamorig:LeftHandIndex2
									{
										OFFSET 6.226883 0.000000 0.000000
										CHANNELS 3 Xrotation Yrotation Zrotation
										JOINT mixamorig:LeftHandIndex3
										{
											OFFSET 6.094330 0.000000 0.000000
											CHANNELS 3 Xrotation Yrotation Zrotation
											JOINT mixamorig:LeftHandIndex4
											{
												OFFSET 5.482605 0.000000 0.000000
												CHANNELS 3 Xrotation Yrotation Zrotation
												End Site
												{
													OFFSET -1.427902 5.233032 0.797164
												}
											}
										}
									}
								}
								JOINT mixamorig:LeftHandRing1
								{
									OFFSET 22.299240 0.021149 -3.964172
									CHANNELS 3 Xrotation Yrotation Zrotation
									JOINT mixamorig:LeftHandRing2
									{
										OFFSET 6.321869 0.000000 0.000000
										CHANNELS 3 Xrotation Yrotation Zrotation
										JOINT mixamorig:LeftHandRing3
										{
											OFFSET 5.899796 0.000000 0.000000
											CHANNELS 3 Xrotation Yrotation Zrotation
											JOINT mixamorig:LeftHandRing4
											{
												OFFSET 6.517899 0.000000 0.000000
												CHANNELS 3 Xrotation Yrotation Zrotation
												End Site
												{
													OFFSET -1.637299 6.232208 0.980890
												}
											}
										}
									}
								}
								JOINT mixamorig:LeftHandPinky1
								{
									OFFSET 20.463791 -0.302338 -8.562233
									CHANNELS 3 Xrotation Yrotation Zrotation
									JOINT mixamorig:LeftHandPinky2
									{
										OFFSET 6.908646 0.000000 0.000000
										CHANNELS 3 Xrotation Yrotation Zrotation
										JOINT mixamorig:LeftHandPinky3
										{
											OFFSET 4.622849 0.000000 0.000000
											CHANNELS 3 Xrotation Yrotation Zrotation
											JOINT mixamorig:LeftHandPinky4
											{
												OFFSET 5.216080 0.000000 0.000000
												CHANNELS 3 Xrotation Yrotation Zrotation
												End Site
												{
													OFFSET -0.606308 5.116241 0.814926
												}
											}
										}
									}
								}
							}
						}
					}
				}
				JOINT mixamorig:RightShoulder
				{
					OFFSET -12.001300 18.284088 1.348900
					CHANNELS 3 Xrotation Yrotation Zrotation
					JOINT mixamorig:RightArm
					{
						OFFSET -25.308500 -0.751312 -5.164599
						CHANNELS 3 Xrotation Yrotation Zrotation
						JOINT mixamorig:RightForeArm
						{
							OFFSET -54.684429 0.000000 0.000000
							CHANNELS 3 Xrotation Yrotation Zrotation
							JOINT mixamorig:RightHand
							{
								OFFSET -55.150291 0.000000 0.000000
								CHANNELS 3 Xrotation Yrotation Zrotation
								JOINT mixamorig:RightHandMiddle1
								{
									OFFSET -23.317566 0.000000 0.000000
									CHANNELS 3 Xrotation Yrotation Zrotation
									JOINT mixamorig:RightHandMiddle2
									{
										OFFSET -6.378403 0.000000 0.000000
										CHANNELS 3 Xrotation Yrotation Zrotation
										JOINT mixamorig:RightHandMiddle3
										{
											OFFSET -6.148193 0.000000 0.000000
											CHANNELS 3 Xrotation Yrotation Zrotation
											JOINT mixamorig:RightHandMiddle4
											{
												OFFSET -6.583389 0.000000 0.000000
												CHANNELS 3 Xrotation Yrotation Zrotation
												End Site
												{
													OFFSET 1.171692 6.395905 1.029786
												}
											}
										}
									}
								}
								JOINT mixamorig:RightHandThumb1
								{
									OFFSET -7.190521 -3.860474 5.435846
									CHANNELS 3 Xrotation Yrotation Zrotation
									JOINT mixamorig:RightHandThumb2
									{
										OFFSET -6.567429 -3.791718 3.791708
										CHANNELS 3 Xrotation Yrotation Zrotation
										JOINT mixamorig:RightHandThumb3
										{
											OFFSET -6.062469 -3.500153 3.500166
											CHANNELS 3 Xrotation Yrotation Zrotation
											JOINT mixamorig:RightHandThumb4
											{
												OFFSET -4.792618 -2.767029 2.767022
												CHANNELS 3 Xrotation Yrotation Zrotation
												End Site
												{
													OFFSET -0.100327 6.053253 1.276754
												}
											}
										}
									}
								}
								JOINT mixamorig:RightHandIndex1
								{
									OFFSET -23.048981 -0.310791 4.992554
									CHANNELS 3 Xrotation Yrotation Zrotation
									JOINT mixamorig:RightHandIndex2
									{
										OFFSET -6.227539 0.000000 0.000000
										CHANNELS 3 Xrotation Yrotation Zrotation
										JOINT mixamorig:RightHandIndex3
										{
											OFFSET -6.095047 0.000000 0.000000
											CHANNELS 3 Xrotation Yrotation Zrotation
											JOINT mixamorig:RightHandIndex4
											{
												OFFSET -5.484772 0.000000 0.000000
												CHANNELS 3 Xrotation Yrotation Zrotation
												End Site
												{
													OFFSET 1.420593 5.237305 0.797056
												}
											}
										}
									}
								}
								JOINT mixamorig:RightHandRing1
								{
									OFFSET -22.246323 0.020569 -3.963762
									CHANNELS 3 Xrotation Yrotation Zrotation
									JOINT mixamorig:RightHandRing2
									{
										OFFSET -6.322128 0.000000 0.000000
										CHANNELS 3 Xrotation Yrotation Zrotation
										JOINT mixamorig:RightHandRing3
										{
											OFFSET -5.900024 0.000000 0.000000
											CHANNELS 3 Xrotation Yrotation Zrotation
											JOINT mixamorig:RightHandRing4
											{
												OFFSET -6.518356 0.000000 0.000000
												CHANNELS 3 Xrotation Yrotation Zrotation
												End Site
												{
													OFFSET 1.636398 6.232697 0.982186
												}
											}
										}
									}
								}
								JOINT mixamorig:RightHandPinky1
								{
									OFFSET -20.411011 -0.303314 -8.561701
									CHANNELS 3 Xrotation Yrotation Zrotation
									JOINT mixamorig:RightHandPinky2
									{
										OFFSET -6.907349 0.000000 0.000000
										CHANNELS 3 Xrotation Yrotation Zrotation
										JOINT mixamorig:RightHandPinky3
										{
											OFFSET -4.623840 0.000000 0.000000
											CHANNELS 3 Xrotation Yrotation Zrotation
											JOINT mixamorig:RightHandPinky4
											{
												OFFSET -5.218353 0.000000 0.000000
												CHANNELS 3 Xrotation Yrotation Zrotation
												End Site
												{
													OFFSET 0.602097 5.118835 0.816273
												}
											}
										}
									}
								}
							}
						}
					}
				}
			}
		}
	}
	JOINT mixamorig:LeftUpLeg
	{
		OFFSET 18.168400 -13.561905 -0.039000
		CHANNELS 3 Xrotation Yrotation Zrotation
		JOINT mixamorig:LeftLeg
		{
			OFFSET 0.577358 -80.825211 -3.695000
			CHANNELS 3 Xrotation Yrotation Zrotation
			JOINT mixamorig:LeftFoot
			{
				OFFSET -0.577356 -83.370262 -6.520700
				CHANNELS 3 Xrotation Yrotation Zrotation
				JOINT mixamorig:LeftToeBase
				{
					OFFSET 0.750401 -20.798306 25.135401
					CHANNELS 3 Xrotation Yrotation Zrotation
					JOINT mixamorig:LeftToe_End
					{
						OFFSET -0.000500 0.001200 19.917799
						CHANNELS 3 Xrotation Yrotation Zrotation
						End Site
						{
							OFFSET 0.000000 19.917805 0.000000
						}
					}
				}
			}
		}
	}
	JOINT mixamorig:RightUpLeg
	{
		OFFSET -18.162500 -13.585098 -0.041000
		CHANNELS 3 Xrotation Yrotation Zrotation
		JOINT mixamorig:RightLeg
		{
			OFFSET -0.595024 -80.945297 -3.631900
			CHANNELS 3 Xrotation Yrotation Zrotation
			JOINT mixamorig:RightFoot
			{
				OFFSET 0.595024 -83.218193 -6.561200
				CHANNELS 3 Xrotation Yrotation Zrotation
				JOINT mixamorig:RightToeBase
				{
					OFFSET -0.753601 -20.807106 25.115000
					CHANNELS 3 Xrotation Yrotation Zrotation
					JOINT mixamorig:RightToe_End
					{
						OFFSET 0.000299 0.001700 19.918200
						CHANNELS 3 Xrotation Yrotation Zrotation
						End Site
						{
							OFFSET 0.000000 19.918203 0.000000
						}
					}
				}
			}
		}
	}
}
MOTION
Frames: 4
Frame Time: 0.033333
0.308524 197.281601 -1.429313 -1.635767 2.571977 -0.064961 7.752113 2.991600 0.320332 0.570741 0.803760 -0.522754 0.564902 0.825992 -0.533853 2.306961 -1.459956 -0.176138 11.922440 -8.935842 -19.656605 -0.000002 0.000001 -0.000000 -0.000002 0.000001 -0.000000 -0.000002 0.000001 -0.000000 0.503687 -5.730277 -13.737950 -1.664924 0.516744 -66.124339 30.278314 -36.117111 19.370901 -4.316403 23.857559 -3.915429 1.646155 6.240674 -39.234246 1.031705 3.321853 -34.499337 1.150290 3.487834 -36.495921 -0.000001 0.000003 0.000002 11.052341 1.842617 5.032646 18.727720 9.493487 3.181524 2.031774 -7.147836 22.249451 -0.000001 0.000001 -0.000001 0.774044 5.564075 -43.767845 0.858022 3.054197 -31.377080 0.858033 3.054194 -31.377093 -0.000000 0.000001 -0.000001 6.128187 10.929511 -41.207908 0.716181 2.808744 -28.604009 0.817030 2.985998 -30.598725 0.000001 -0.000003 -0.000001 8.308093 15.667855 -36.316874 0.820564 2.991982 -30.666726 0.820557 2.991995 -30.666720 0.000000 -0.000001 -0.000000 0.394763 5.286412 16.540922 23.518399 39.894964 53.220851 -15.122133 37.677618 -13.269946 -3.793128 -18.017303 2.651034 1.705585 -5.834459 45.963867 0.704245 -2.464396 31.891837 0.792488 -2.600720 33.889158 0.000001 -0.000002 -0.000001 4.371404 -5.641932 -2.079301 15.372087 -15.739689 -10.456592 -13.933380 -9.273722 -8.505939 -0.000002 -0.000003 -0.000003 0.666194 -4.874681 47.759784 0.894653 -2.746527 36.078866 0.894650 -2.746547 36.078876 -0.000002 -0.000004 0.000001 6.124751 -10.415330 46.938115 0.840082 -2.670126 34.923871 0.935457 -2.801596 36.921841 -0.000000 -0.000000 0.000000 8.154529 -15.186173 40.051536 0.839911 -2.669890 34.920121 0.839902 -2.669864 34.920131 -0.000001 0.000002 0.000000 -8.490285 -2.183464 10.473566 13.480477 1.691529 2.117770 -2.939703 1.037818 -12.755563 0.809068 -0.694970 0.006437 -0.000000 -0.000000 0.000000 -5.212347 -8.511506 -12.477685 6.927552 4.853219 -2.386540 -0.801519 -0.775087 13.860838 -0.667639 -6.165704 1.052572 -0.000000 -0.000001 -0.000000 
0.345215 197.313492 -1.426130 -1.606729 2.575550 -0.062044 7.720486 3.023881 0.338528 0.567152 0.812630 -0.534163 0.561938 0.833997 -0.545078 2.307846 -1.459659 -0.171433 11.929024 -8.952671 -19.618895 -0.000001 -0.000000 0.000000 -0.000001 -0.000000 0.000000 -0.000001 -0.000000 0.000000 0.505169 -5.754197 -13.740011 -1.684892 0.459159 -66.134092 30.249306 -36.110056 19.346999 -4.338691 23.810878 -3.824778 1.644960 6.239333 -39.223785 1.031853 3.322074 -34.501956 1.150448 3.488056 -36.498588 -0.000000 -0.000001 -0.000000 11.060581 1.850092 5.034269 18.744609 9.484524 3.180662 2.028267 -7.148070 22.263833 -0.000002 -0.000003 -0.000003 0.773263 5.562876 -43.754981 0.859053 3.055864 -31.396249 0.859051 3.055863 -31.396259 -0.000000 -0.000000 0.000000 6.125897 10.929725 -41.196836 0.716174 2.808735 -28.603891 0.817023 2.985982 -30.598582 -0.000000 -0.000003 0.000000 8.305636 15.672853 -36.294970 0.821407 2.993419 -30.683088 0.821412 2.993442 -30.683057 -0.000001 0.000002 0.000001 0.395846 5.220168 16.537686 23.541285 40.004606 53.186482 -15.239400 37.600137 -13.223499 -3.796759 -18.004264 2.638269 1.703347 -5.834553 45.953277 0.704339 -2.464558 31.894490 0.792624 -2.600912 33.891791 0.000000 0.000001 0.000002 4.380371 -5.649041 -2.075976 15.384600 -15.726275 -10.457096 -13.942002 -9.269465 -8.520265 0.000004 -0.000004 -0.000005 0.665555 -4.873737 47.746922 0.895573 -2.747789 36.098035 0.895572 -2.747802 36.098052 0.000002 -0.000000 -0.000001 6.122994 -10.415412 46.927173 0.840071 -2.670108 34.923737 0.935456 -2.801595 36.921708 -0.000000 0.000002 0.000000 8.152839 -15.191138 40.029997 0.840677 -2.670967 34.936493 0.840670 -2.670963 34.936503 -0.000001 0.000001 0.000000 -8.501711 -2.097913 10.463641 13.431018 1.604691 2.112089 -2.979103 1.041347 -12.723037 0.961696 -0.643568 0.007097 0.000000 0.000000 -0.000000 -5.189253 -9.049914 -12.517911 6.591251 5.355112 -2.401221 -0.632324 -0.754259 13.874111 -0.717671 -6.215628 1.130950 -0.000000 -0.000000 -0.000000 
0.409013 197.338379 -1.421429 -1.581167 2.580223 -0.016898 7.696114 3.020155 0.338151 0.565108 0.816409 -0.548175 0.560314 0.837258 -0.559185 2.308772 -1.459532 -0.167522 11.857922 -8.940956 -19.585877 -0.000002 -0.000000 -0.000001 -0.000002 -0.000000 -0.000001 -0.000002 -0.000000 -0.000001 0.506100 -5.752336 -13.740582 -1.697236 0.407100 -66.154077 30.186301 -36.128733 19.309397 -4.363398 23.771693 -3.719572 1.642900 6.236997 -39.201782 1.031951 3.322208 -34.503551 1.150545 3.488187 -36.500189 -0.000000 -0.000001 0.000001 11.079924 1.867595 5.038258 18.775425 9.473068 3.178852 2.019295 -7.149577 22.294598 0.000000 -0.000001 -0.000003 0.771961 5.560829 -43.733035 0.861224 3.059417 -31.436980 0.861220 3.059411 -31.437011 -0.000001 -0.000003 -0.000000 6.121376 10.929285 -41.174682 0.716190 2.808758 -28.604211 0.817037 2.986011 -30.598913 -0.000001 -0.000003 -0.000001 8.299561 15.680545 -36.251536 0.822688 2.995577 -30.707639 0.822701 2.995599 -30.707656 -0.000001 -0.000000 0.000001 0.394877 5.191092 16.565724 23.478514 39.919689 53.160278 -15.100423 37.572495 -13.220973 -3.780788 -18.076630 2.720182 1.700305 -5.833947 45.931110 0.704420 -2.464680 31.896095 0.792691 -2.601017 33.893390 0.000002 -0.000002 0.000001 4.400897 -5.666389 -2.069605 15.408140 -15.700161 -10.455313 -13.961059 -9.262647 -8.547591 0.000003 -0.000004 -0.000007 0.664472 -4.872125 47.724943 0.897532 -2.750472 36.138842 0.897540 -2.750489 36.138862 0.000002 -0.000002 0.000001 6.118991 -10.415138 46.905074 0.840092 -2.670147 34.924069 0.935469 -2.801612 36.922042 -0.000001 -0.000001 -0.000000 8.147824 -15.199112 39.986940 0.841825 -2.672611 34.961129 0.841810 -2.672584 34.961136 -0.000001 -0.000001 -0.000001 -8.504567 -2.051923 10.373638 13.379865 1.563204 2.143162 -3.019126 1.043363 -12.699887 1.118845 -0.587233 0.007545 0.000000 -0.000000 -0.000000 -5.174403 -9.347625 -12.605489 6.360041 5.614347 -2.394841 -0.512609 -0.734459 13.895722 -0.884784 -6.390512 1.392513 -0.000000 -0.000001 0.000000 
0.405235 197.332397 -1.399496 -1.544137 2.558660 -0.029421 7.656314 3.037080 0.339617 0.563561 0.821110 -0.542188 0.559406 0.842141 -0.553354 2.309523 -1.459601 -0.164287 11.767064 -8.937671 -19.528016 -0.000001 0.000000 0.000001 -0.000001 0.000000 0.000001 -0.000001 0.000000 0.000001 0.507874 -5.739922 -13.741603 -1.725741 0.390767 -66.106013 29.911943 -36.262646 19.169901 -4.321791 23.733398 -3.935530 1.641455 6.235359 -39.187503 1.032038 3.322333 -34.504989 1.150640 3.488306 -36.501620 -0.000000 0.000002 -0.000000 11.105319 1.882089 5.042267 18.787352 9.470892 3.178152 2.013128 -7.149571 22.305472 0.000001 -0.000000 -0.000001 0.771225 5.559673 -43.720905 0.861435 3.059766 -31.440962 0.861435 3.059761 -31.440986 -0.000000 0.000000 0.000000 6.117447 10.928266 -41.159663 0.716236 2.808834 -28.605088 0.817086 2.986094 -30.599784 -0.000001 -0.000000 0.000001 8.304640 15.689706 -36.246810 0.823803 2.997437 -30.728816 0.823804 2.997463 -30.728799 -0.000001 -0.000002 0.000000 0.394861 5.169741 16.560152 23.465477 39.915701 53.133971 -15.015283 37.551205 -13.224872 -3.769341 -18.073994 2.796021 1.697611 -5.833546 45.916678 0.704486 -2.464770 31.897537 0.792748 -2.601109 33.894817 -0.000001 -0.000002 0.000001 4.426635 -5.680718 -2.061780 15.418749 -15.688791 -10.454709 -13.972550 -9.261794 -8.556002 0.000001 -0.000005 -0.000006 0.663862 -4.871197 47.712799 0.897722 -2.750730 36.142800 0.897725 -2.750735 36.142841 0.000001 0.000001 0.000002 6.115468 -10.414177 46.890106 0.840128 -2.670188 34.924950 0.935513 -2.801675 36.922920 -0.000000 -0.000004 -0.000000 8.153908 -15.207698 39.982654 0.842804 -2.674013 34.982306 0.842805 -2.674009 34.982303 0.000000 -0.000004 -0.000001 -8.579875 -1.965417 10.408524 13.442714 1.466303 2.116400 -3.062822 1.046253 -12.677737 1.128275 -0.535955 0.006930 0.000000 -0.000000 -0.000000 -5.206910 -9.254924 -12.567409 6.394479 5.536918 -2.429587 -0.530943 -0.734973 13.911821 -0.884654 -6.381257 1.392532 -0.000000 0.000000 -0.000000 
